<svg xmlns="http://www.w3.org/2000/svg" viewBox="0 0 200 250" width="200" height="250">
  <rect width="200" height="250" fill="#efe7d4"/>

  <!-- тень -->
  <ellipse cx="100" cy="218" rx="78" ry="6" fill="#1c1c1c" opacity="0.1"/>

  <g stroke="#1c1c1c" stroke-width="2.5" stroke-linejoin="round">
    <!-- коробка нижняя часть -->
    <rect x="30" y="138" width="140" height="72" fill="#b8431f"/>
    <!-- крышка коробки чуть выступает -->
    <rect x="26" y="124" width="148" height="22" fill="#5d6b5b"/>

    <!-- внутренняя рамка на крышке -->
    <rect x="38" y="130" width="124" height="10" fill="none" stroke="#f7eedf" stroke-width="1" opacity="0.7"/>
    <text x="100" y="143" text-anchor="middle" font-family="Cormorant Garamond, Georgia, serif" font-style="italic" font-size="13" fill="#f7eedf">настолки</text>

    <!-- фишки на крышке/перед коробкой -->
    <circle cx="56" cy="178" r="9" fill="#f7eedf"/>
    <circle cx="56" cy="178" r="3" fill="#1c1c1c"/>

    <circle cx="84" cy="178" r="9" fill="#5d6b5b"/>
    <circle cx="84" cy="178" r="3" fill="#f7eedf"/>

    <circle cx="112" cy="178" r="9" fill="#1c1c1c"/>
    <circle cx="112" cy="178" r="3" fill="#f7eedf"/>

    <!-- кубик справа -->
    <g transform="translate(132 162) rotate(-8)">
      <rect x="0" y="0" width="28" height="28" fill="#f7eedf"/>
      <circle cx="8" cy="8" r="2" fill="#1c1c1c"/>
      <circle cx="20" cy="8" r="2" fill="#1c1c1c"/>
      <circle cx="14" cy="14" r="2" fill="#1c1c1c"/>
      <circle cx="8" cy="20" r="2" fill="#1c1c1c"/>
      <circle cx="20" cy="20" r="2" fill="#1c1c1c"/>
    </g>

    <!-- кубик слева летит -->
    <g transform="translate(36 90) rotate(14)">
      <rect x="0" y="0" width="22" height="22" fill="#f7eedf"/>
      <circle cx="11" cy="11" r="2.5" fill="#b8431f"/>
    </g>
  </g>
</svg>
