<svg xmlns="http://www.w3.org/2000/svg" viewBox="0 0 512 512">
  <rect width="512" height="512" rx="112" fill="#f6f4ed"/>
  <rect x="96" y="80" width="320" height="352" rx="32" fill="#ffffff" stroke="#1c1c1c" stroke-width="6"/>
  <rect x="180" y="48" width="152" height="64" rx="16" fill="#10b981" stroke="#1c1c1c" stroke-width="6"/>
  <circle cx="160" cy="180" r="20" fill="#10b981"/>
  <path d="M148 180 l10 10 l16 -18" fill="none" stroke="#fff" stroke-width="6" stroke-linecap="round" stroke-linejoin="round"/>
  <rect x="200" y="166" width="180" height="14" rx="7" fill="#1c1c1c"/>
  <rect x="200" y="190" width="120" height="10" rx="5" fill="#9ca3af"/>
  <circle cx="160" cy="256" r="20" fill="#10b981"/>
  <path d="M148 256 l10 10 l16 -18" fill="none" stroke="#fff" stroke-width="6" stroke-linecap="round" stroke-linejoin="round"/>
  <rect x="200" y="242" width="160" height="14" rx="7" fill="#1c1c1c"/>
  <rect x="200" y="266" width="100" height="10" rx="5" fill="#9ca3af"/>
  <circle cx="160" cy="332" r="20" fill="#fff" stroke="#1c1c1c" stroke-width="4"/>
  <rect x="200" y="318" width="170" height="14" rx="7" fill="#1c1c1c"/>
  <rect x="200" y="342" width="90" height="10" rx="5" fill="#9ca3af"/>
  <rect x="128" y="384" width="256" height="20" rx="10" fill="#fde68a"/>
  <rect x="128" y="384" width="170" height="20" rx="10" fill="#f59e0b"/>
</svg>
