<svg xmlns="http://www.w3.org/2000/svg" viewBox="0 0 100 100" width="100" height="100">
  <g stroke="#1c1c1c" stroke-width="2.5" stroke-linejoin="round" stroke-linecap="round">
    <path d="M 78 56 Q 96 38 92 14 Q 78 18 72 38 Q 68 50 74 56 Z" fill="#b8431f"/>
    <path d="M 78 28 Q 84 32 86 38" fill="none" stroke-width="1.5"/>
    <path d="M 40 64 Q 28 46 38 30 Q 52 22 66 32 Q 76 44 72 60 Q 64 72 50 72 Q 42 72 40 64 Z" fill="#c95c34"/>
    <circle cx="36" cy="36" r="14" fill="#c95c34"/>
    <path d="M 26 24 L 22 14 L 30 22 Z" fill="#c95c34"/>
    <path d="M 42 22 L 46 12 L 48 22 Z" fill="#c95c34"/>
    <circle cx="32" cy="36" r="2" fill="#1c1c1c" stroke="none"/>
    <circle cx="22" cy="40" r="1.5" fill="#1c1c1c" stroke="none"/>
    <path d="M 40 52 Q 36 56 38 62" fill="none"/>
    <ellipse cx="42" cy="60" rx="6" ry="5" fill="#7a5234"/>
    <path d="M 42 56 L 44 52" stroke-width="1.5"/>
    <path d="M 52 72 L 52 80 L 58 80" fill="none"/>
    <path d="M 64 70 L 68 78 L 74 76" fill="none"/>
  </g>
</svg>
