<svg xmlns="http://www.w3.org/2000/svg" viewBox="0 0 100 100" width="100" height="100">
  <g stroke="#1c1c1c" stroke-width="2.5" stroke-linejoin="round" stroke-linecap="round">
    <path d="M 14 64 Q 4 50 14 30 Q 28 18 44 22 Q 48 14 60 18 Q 62 28 56 34 Q 62 50 50 64 Q 30 76 14 64 Z" fill="#c95c34"/>
    <path d="M 28 42 Q 22 44 18 40" fill="none"/>
    <path d="M 36 38 Q 32 44 28 40" fill="none"/>
    <circle cx="38" cy="46" r="2" fill="#1c1c1c" stroke="none"/>
    <circle cx="48" cy="44" r="2" fill="#1c1c1c" stroke="none"/>
    <path d="M 50 50 Q 48 54 52 52" fill="none" stroke-width="1.5"/>
    <path d="M 56 64 Q 76 64 90 50 Q 96 30 78 18 Q 74 30 78 40 Q 70 56 56 60 Z" fill="#b8431f"/>
  </g>
</svg>
