<svg xmlns="http://www.w3.org/2000/svg" viewBox="0 0 100 100" width="100" height="100">
  <g stroke="#1c1c1c" stroke-width="2.5" stroke-linejoin="round" stroke-linecap="round">
    <path d="M 88 70 Q 96 50 84 28 Q 70 16 56 24 Q 66 32 70 44 Q 60 50 56 62 Q 64 68 76 64 Q 80 74 88 70 Z" fill="#d8a85a"/>
    <path d="M 78 52 Q 82 50 84 46" fill="none" stroke-width="1.5"/>
    <ellipse cx="40" cy="56" rx="22" ry="18" fill="#b8431f"/>
    <circle cx="32" cy="38" r="14" fill="#b8431f"/>
    <path d="M 22 26 L 18 18 L 28 24 Z" fill="#b8431f"/>
    <path d="M 38 22 L 42 14 L 44 24 Z" fill="#b8431f"/>
    <circle cx="28" cy="38" r="2" fill="#fbf7ee" stroke="none"/>
    <circle cx="29" cy="38" r="1" fill="#1c1c1c" stroke="none"/>
    <circle cx="18" cy="42" r="1.5" fill="#1c1c1c" stroke="none"/>
    <path d="M 16 46 Q 20 50 24 46" fill="none" stroke-width="1.5"/>
    <path d="M 32 72 L 32 80 L 38 80" fill="none"/>
    <path d="M 48 70 L 52 80 L 58 80" fill="none"/>
  </g>
</svg>
