<svg xmlns="http://www.w3.org/2000/svg" viewBox="0 0 100 100" width="100" height="100">
  <g stroke="#1c1c1c" stroke-width="2.5" stroke-linejoin="round" stroke-linecap="round">
    <circle cx="50" cy="56" r="26" fill="#c95c34"/>
    <path d="M 50 30 L 50 18" fill="none"/>
    <circle cx="50" cy="56" r="2" fill="none" stroke-width="1.5"/>
    <path d="M 30 70 Q 14 78 8 64 Q 12 56 22 56" fill="#b8431f"/>
    <path d="M 70 70 Q 86 78 92 64 Q 88 56 78 56" fill="#b8431f"/>
    <ellipse cx="42" cy="48" rx="3" ry="4" fill="#1c1c1c" stroke="none"/>
    <ellipse cx="58" cy="48" rx="3" ry="4" fill="#1c1c1c" stroke="none"/>
    <circle cx="41" cy="46" r="1" fill="#fbf7ee" stroke="none"/>
    <circle cx="57" cy="46" r="1" fill="#fbf7ee" stroke="none"/>
    <path d="M 46 58 Q 50 62 54 58" fill="none" stroke-width="1.5"/>
    <ellipse cx="38" cy="60" rx="2" ry="1.5" fill="#f4a6a6" stroke="none"/>
    <ellipse cx="62" cy="60" rx="2" ry="1.5" fill="#f4a6a6" stroke="none"/>
  </g>
</svg>
