<svg xmlns="http://www.w3.org/2000/svg" viewBox="0 0 100 100" width="100" height="100">
  <g stroke="#1c1c1c" stroke-width="2.5" stroke-linejoin="round" stroke-linecap="round">
    <path d="M 14 76 Q 6 56 16 38 Q 30 24 52 26 Q 70 30 76 46 Q 82 36 78 22 Q 70 14 56 18" fill="#c95c34"/>
    <path d="M 76 46 Q 86 60 82 76 Q 70 84 50 80 Q 30 78 18 76 Z" fill="#c95c34"/>
    <circle cx="46" cy="40" r="2" fill="#1c1c1c" stroke="none"/>
    <circle cx="58" cy="40" r="2" fill="#1c1c1c" stroke="none"/>
    <path d="M 52 48 Q 56 52 60 48" fill="none" stroke-width="1.5"/>
    <ellipse cx="30" cy="58" rx="6" ry="5" fill="#7a5234"/>
    <path d="M 30 54 L 32 50" stroke-width="1.5"/>
    <path d="M 38 28 L 40 18 L 46 26 Z" fill="#c95c34"/>
    <path d="M 60 24 L 66 14 L 68 26 Z" fill="#c95c34"/>
  </g>
  <text x="6" y="94" font-family="Cormorant Garamond, Georgia, serif" font-style="italic" font-size="11" fill="#1c1c1c">пузатик</text>
</svg>
