<svg xmlns="http://www.w3.org/2000/svg" viewBox="0 0 100 100" width="100" height="100">
  <!-- ветка -->
  <path d="M 0 78 Q 50 84 100 78" stroke="#7a5234" stroke-width="5" fill="none" stroke-linecap="round"/>
  <line x1="20" y1="80" x2="14" y2="86" stroke="#7a5234" stroke-width="3"/>
  <line x1="80" y1="80" x2="86" y2="86" stroke="#7a5234" stroke-width="3"/>

  <g stroke="#1c1c1c" stroke-width="2.5" stroke-linejoin="round" stroke-linecap="round">
    <path d="M 18 76 Q 10 58 12 38 Q 22 26 26 46 Q 22 62 22 76 Z" fill="#b8431f"/>
    <ellipse cx="40" cy="68" rx="20" ry="12" fill="#c95c34"/>
    <circle cx="58" cy="62" r="10" fill="#c95c34"/>
    <path d="M 53 54 L 50 46 L 58 52 Z" fill="#c95c34"/>
    <path d="M 62 54 L 68 46 L 68 56 Z" fill="#c95c34"/>
    <circle cx="62" cy="62" r="1.5" fill="#1c1c1c" stroke="none"/>
    <circle cx="68" cy="64" r="1.2" fill="#1c1c1c" stroke="none"/>
    <path d="M 30 74 L 30 80" fill="none"/>
    <path d="M 48 76 L 48 80" fill="none"/>
    <path d="M 58 70 Q 60 76 56 78" fill="none"/>
  </g>
</svg>
